<svg xmlns="http://www.w3.org/2000/svg" viewBox="0 0 88 88" width="100%" height="100%">
  <title>AsterYggdrasil App Icon</title>
  <rect x="1.5" y="1.5" width="85" height="85" rx="15.5" fill="#07110D" fill-opacity="0.92"/>
  <rect x="1.5" y="1.5" width="85" height="85" rx="15.5" fill="none" stroke="#FFFFFF" stroke-opacity="0.12" stroke-width="3"/>
  <g filter="url(#shadow)">
    <rect x="11" y="10" width="20" height="20" rx="4" fill="#56C787"/>
    <rect x="34" y="10" width="20" height="20" rx="4" fill="#56C787"/>
    <rect x="57" y="10" width="20" height="20" rx="4" fill="#56C787"/>
    <rect x="11" y="35" width="20" height="20" rx="4" fill="#514D47"/>
    <rect x="34" y="35" width="20" height="20" rx="4" fill="#AF5B00"/>
    <rect x="57" y="35" width="20" height="20" rx="4" fill="#B86102"/>
    <rect x="11" y="60" width="20" height="20" rx="4" fill="#514D47"/>
    <rect x="34" y="60" width="20" height="20" rx="4" fill="#B86102"/>
    <rect x="57" y="60" width="20" height="20" rx="4" fill="#B86102"/>
  </g>
  <defs>
    <filter id="shadow" x="5" y="6" width="78" height="82" filterUnits="userSpaceOnUse" color-interpolation-filters="sRGB">
      <feDropShadow dx="0" dy="2" stdDeviation="2" flood-color="#000000" flood-opacity="0.28"/>
    </filter>
  </defs>
</svg>
