<?xml version="1.0" encoding="UTF-8"?>
<!-- Generated by Pixelmator Pro 3.7 -->
<svg width="500" height="500" viewBox="0 0 500 500" xmlns="http://www.w3.org/2000/svg">
    <path id="Path" fill="#4285f4" stroke="none" d="M 479.166656 255.104172 C 479.166656 236.25 477.604156 222.5 474.25 208.229156 L 254.666672 208.229156 L 254.666672 293.291687 L 383.541656 293.291687 C 380.958313 314.416687 366.937531 346.25 335.749969 367.645813 L 335.3125 370.479187 L 404.729156 423.1875 L 409.520813 423.645813 C 453.729156 383.6875 479.166656 324.854187 479.166656 255.104172 Z"/>
    <path id="path1" fill="#34a853" stroke="none" d="M 254.687515 479.166656 C 317.8125 479.166656 370.8125 458.791656 409.541687 423.645813 L 335.749969 367.645813 C 316 381.145844 289.5 390.5625 254.687515 390.5625 C 194.522156 390.568024 141.028976 352.27005 121.645836 295.3125 L 118.895828 295.541656 L 46.708336 350.291656 L 45.770832 352.875 C 84.229172 427.729187 163.229172 479.166656 254.687515 479.166656 Z"/>
    <path id="path2" fill="#fbbc05" stroke="none" d="M 121.666672 295.3125 C 116.542519 280.751373 113.887894 265.436249 113.8125 250 C 113.8125 234.208313 116.6875 218.9375 121.333328 204.6875 L 121.208328 201.625 L 48.125 146 L 45.729164 147.125 C 29.391514 178.957794 20.858158 214.219482 20.833334 250 C 20.833334 286.916687 29.916666 321.8125 45.770832 352.875 L 121.645836 295.3125 Z"/>
    <path id="path3" fill="#eb4335" stroke="none" d="M 254.687515 109.4375 C 298.604156 109.4375 328.208313 128.020844 345.104187 143.562469 L 411.083344 80.416687 C 370.5625 43.5 317.8125 20.833344 254.687515 20.833344 C 163.208328 20.833344 84.229172 72.270844 45.770832 147.125 L 121.395836 204.6875 C 140.94281 147.742798 194.481339 109.484283 254.687515 109.4375 Z"/>
</svg>
