<?xml version="1.0" encoding="UTF-8"?>
<!-- Generated by Pixelmator Pro 3.7 -->
<svg width="600" height="600" viewBox="0 0 600 600" xmlns="http://www.w3.org/2000/svg">
    <path id="Path" fill="#faab07" stroke="none" d="M 300.011108 560.539795 C 253.557129 560.539795 210.913422 544.990845 183.459137 521.769409 C 169.515137 525.935547 151.679291 532.636963 140.426239 540.950684 C 130.789246 548.059814 131.993896 555.309875 133.728546 558.234314 C 141.349182 571.096008 264.469177 566.447937 300.011108 562.444946 Z M 300.011108 560.539795 C 346.472534 560.539795 389.112488 544.990845 416.570496 521.769409 C 430.50708 525.935547 448.34668 532.636963 459.603394 540.950684 C 469.232971 548.059814 468.032043 555.309875 466.293701 558.234314 C 458.673035 571.096008 335.556824 566.447937 300.011108 562.444946 Z M 300.011108 560.539795"/>
    <path id="path1" fill="#000000" stroke="none" d="M 300.281677 282.112274 C 376.999573 281.593323 438.483582 266.741272 459.317993 261.048035 C 464.284729 259.687714 466.93866 257.252533 466.93866 257.252533 C 466.957153 256.552002 467.253662 244.761505 467.253662 238.6828 C 467.253662 136.256409 418.90564 33.337036 300 33.333313 C 181.09436 33.337036 132.742615 136.260132 132.742615 238.679077 C 132.742615 244.765198 133.039124 256.552002 133.061371 257.24881 C 133.061371 257.24881 135.22229 259.528351 139.177155 260.632904 C 158.414063 265.985138 221.054504 281.574799 299.7146 282.112274 Z M 508.755737 367.436707 C 504.000305 352.132416 497.510132 334.285461 490.934753 317.146423 C 490.934753 317.146423 487.154053 316.679413 485.237793 317.231689 C 426.255737 334.367004 354.760376 345.290161 300.281677 344.630402 L 299.7146 344.630402 C 245.539856 345.279053 174.53009 334.485596 115.744446 317.51709 C 113.49826 316.868439 109.065247 317.146423 109.065247 317.146423 C 102.489868 334.285461 95.999725 352.136139 91.244232 367.436707 C 68.563934 440.418396 75.914001 470.619202 81.507172 471.293823 C 93.512634 472.746765 128.23175 416.359253 128.23175 416.359253 C 128.23175 473.658569 179.963867 561.636902 298.428406 562.444946 L 301.571594 562.444946 C 420.032471 561.636902 471.764526 473.658569 471.764526 416.359253 C 471.764526 416.359253 506.487366 472.746765 518.492798 471.297546 C 524.082275 470.619202 531.432373 440.414673 508.755737 367.436707"/>
    <path id="path2" fill="#ffffff" stroke="none" d="M 257.68988 184.648926 C 241.559082 185.379089 227.778137 167.005798 226.910828 143.643494 C 226.036072 120.273804 238.393677 100.736694 254.524536 100.00647 C 270.636841 99.283691 284.414001 117.649597 285.288757 141.019287 C 286.170898 164.3927 273.809631 183.929871 257.68988 184.648926 M 373.085449 143.643494 C 372.221863 167.002136 358.440918 185.379089 342.31012 184.648926 C 326.186707 183.926147 313.829102 164.3927 314.711243 141.02301 C 315.585999 117.65332 329.359436 99.287415 345.475464 100.00647 C 361.606323 100.736694 373.963928 120.273804 373.085449 143.643494"/>
    <path id="path3" fill="#faab07" stroke="none" d="M 401.751831 217.640778 C 397.444824 208.096466 354.030151 197.45871 300.289124 197.45871 L 299.710876 197.45871 C 245.966125 197.45871 202.555176 208.096466 198.244507 217.644501 C 198.040588 218.069183 197.933014 218.533691 197.929443 219.004791 C 197.936951 219.663422 198.143707 220.304352 198.522491 220.843231 C 202.154877 226.132446 250.358398 252.300598 299.710876 252.300598 L 300.289124 252.300598 C 349.637939 252.300598 397.841431 226.139893 401.473816 220.843231 C 401.85553 220.30304 402.0625 219.658813 402.066895 218.997375 C 402.063049 218.528687 401.955444 218.06665 401.751831 217.644501"/>
    <path id="path4" fill="#000000" stroke="none" d="M 277.516174 143.98822 C 278.253784 153.217529 273.190613 161.416382 266.226074 162.309631 C 259.246643 163.206604 253.00116 156.453308 252.259827 147.22406 C 251.529663 137.987366 256.585327 129.788513 263.538818 128.898926 C 270.529358 127.994507 276.78595 134.755249 277.516174 143.984558 M 321.831482 147.072083 C 323.258484 144.51825 332.965942 131.089478 353.066467 135.978394 C 358.348267 137.264587 360.790894 139.154907 361.306091 139.89624 C 362.065918 140.993347 362.277222 142.557495 361.502563 144.662842 C 359.975464 148.836365 356.821167 148.721497 355.075439 147.906067 C 353.944885 147.3797 339.945313 138.046631 327.04657 151.972107 C 326.157043 152.924683 324.570618 153.254578 323.069458 152.120361 C 321.560913 150.97876 320.941956 148.673279 321.831482 147.072083"/>
    <path id="path5" fill="#ffffff" stroke="none" d="M 300.281677 341.272278 L 299.7146 341.272278 C 262.664063 341.717041 217.740845 336.809601 174.233551 328.232666 C 170.512207 349.797302 168.266022 376.906891 170.19342 409.231598 C 175.071228 490.934753 223.593506 542.296204 298.491455 543.037476 L 301.530823 543.037476 C 376.432495 542.296204 424.950989 490.934753 429.836243 409.231598 C 431.763611 376.899475 429.513733 349.797302 425.788696 328.228973 C 382.277649 336.809601 337.343323 341.720734 300.2854 341.268585"/>
    <path id="path6" fill="#eb1923" stroke="none" d="M 194.741821 334.433716 L 194.741821 414.8396 C 194.741821 414.8396 231.573669 422.267456 268.475891 417.122803 L 268.475891 342.95874 C 245.098816 341.635529 219.886963 338.688812 194.741821 334.433716"/>
    <path id="path7" fill="#eb1923" stroke="none" d="M 466.93866 257.252533 C 466.93866 257.252533 395.291321 279.869812 300.281677 280.511017 L 299.7146 280.511017 C 204.860657 279.873505 133.306 257.32666 133.061371 257.252533 L 109.065247 317.142731 C 169.085175 335.238037 243.467957 346.898773 299.7146 346.22049 L 300.281677 346.22049 C 356.528381 346.898773 430.90741 335.238037 490.934753 317.142731 Z M 466.93866 257.252533"/>
</svg>
